<svg id="visual" viewBox="0 0 900 600" width="900" height="600" xmlns="http://www.w3.org/2000/svg" xmlns:xlink="http://www.w3.org/1999/xlink" version="1.1"><rect x="0" y="0" width="900" height="600" fill="#FFFFFF"></rect><g transform="translate(915.0680230150014 19.97617238085718)"><path d="M139.8 -255.5C173.7 -222.7 188.3 -169.9 206.7 -124C225 -78.1 247 -39.1 249.5 1.5C252.1 42 235.2 84 218.2 132.4C201.3 180.7 184.4 235.4 148 257.1C111.7 278.7 55.8 267.4 -0.9 269C-57.7 270.5 -115.3 285.1 -151.1 263.1C-186.9 241.1 -200.8 182.5 -224 132.6C-247.2 82.7 -279.6 41.3 -279.9 -0.2C-280.2 -41.7 -248.3 -83.3 -227.6 -137.5C-206.8 -191.6 -197.2 -258.2 -161.1 -289.7C-125 -321.2 -62.5 -317.6 -4.8 -309.4C53 -301.1 106 -288.3 139.8 -255.5" fill="#1a5dc8"></path></g></svg>