<svg id="visual" viewBox="0 0 900 600" width="900" height="600" xmlns="http://www.w3.org/2000/svg" xmlns:xlink="http://www.w3.org/1999/xlink" version="1.1"><rect x="0" y="0" width="900" height="600" fill="#ffffff"></rect><defs><linearGradient id="grad1_0" x1="33.3%" y1="0%" x2="100%" y2="100%"><stop offset="20%" stop-color="#ffffff" stop-opacity="1"></stop><stop offset="80%" stop-color="#ffffff" stop-opacity="1"></stop></linearGradient></defs><defs><linearGradient id="grad2_0" x1="0%" y1="0%" x2="66.7%" y2="100%"><stop offset="20%" stop-color="#ffffff" stop-opacity="1"></stop><stop offset="80%" stop-color="#ffffff" stop-opacity="1"></stop></linearGradient></defs><g transform="translate(900, 0)"><path d="M0 297.5C-39.4 294.2 -78.8 290.9 -113.8 274.8C-148.9 258.7 -179.5 229.7 -198 198C-216.5 166.3 -222.9 131.8 -237.4 98.3C-252 64.9 -274.7 32.4 -297.5 0L0 0Z" fill="#1a5dc8"></path></g><g transform="translate(0, 600)"><path d="M0 -297.5C36.7 -289 73.5 -280.5 111 -267.9C148.5 -255.3 186.7 -238.5 210.3 -210.3C233.9 -182.2 242.9 -142.6 255 -105.6C267.1 -68.7 282.3 -34.3 297.5 0L0 0Z" fill="#1a5dc8"></path></g></svg>