<svg id="visual" viewBox="0 0 900 600" width="900" height="600" xmlns="http://www.w3.org/2000/svg" xmlns:xlink="http://www.w3.org/1999/xlink" version="1.1"><rect x="0" y="0" width="900" height="600" fill="#FFFFFF"></rect><g transform="translate(877.4017838683848 35.15735829718233)"><path d="M205.3 -349C269.2 -318.6 326.4 -270.1 365.1 -208.9C403.8 -147.7 423.9 -73.8 421 -1.7C418.1 70.5 392.2 141 351.5 198.6C310.7 256.2 255.1 300.9 194.1 317.8C133 334.7 66.5 323.8 9.8 306.9C-46.9 289.9 -93.8 266.7 -145.4 244.4C-197.1 222.1 -253.6 200.5 -293.6 159.9C-333.7 119.3 -357.3 59.7 -368.9 -6.7C-380.4 -73 -379.9 -146 -353.9 -211C-327.9 -275.9 -276.4 -332.8 -213.2 -363.6C-150 -394.5 -75 -399.2 -2.2 -395.5C70.7 -391.7 141.3 -379.5 205.3 -349" fill="#1a5dc8"></path></g></svg>