<svg id="visual" viewBox="0 0 900 600" width="900" height="600" xmlns="http://www.w3.org/2000/svg" xmlns:xlink="http://www.w3.org/1999/xlink" version="1.1"><g transform="translate(792.0080108903021 4.170278233325746)"><path d="M315.4 -388.1C410.2 -365.2 489.5 -275 529.4 -168.2C569.4 -61.4 570 62 532.2 171.3C494.5 280.6 418.3 375.7 323.2 385.3C228.1 394.9 114 318.9 35 270.8C-44.1 222.7 -88.2 202.4 -154.7 183.5C-221.3 164.6 -310.4 147.2 -335.7 101.5C-361.1 55.7 -322.7 -18.3 -294.8 -93.2C-267 -168.1 -249.6 -243.8 -202.2 -282.1C-154.8 -320.4 -77.4 -321.2 16.5 -343.8C110.3 -366.5 220.6 -411 315.4 -388.1" fill="#6b40d8"></path></g></svg>