<svg id="visual" viewBox="0 0 900 600" width="900" height="600" xmlns="http://www.w3.org/2000/svg" xmlns:xlink="http://www.w3.org/1999/xlink" version="1.1"><rect x="0" y="0" width="900" height="600" fill="#FFFFFF"></rect><g transform="translate(911.9192942945809 18.839574353340538)"><path d="M258.2 -457.2C323.7 -409.4 358.5 -318.2 404.8 -234.8C451.1 -151.3 509.1 -75.7 501.3 -4.5C493.5 66.7 419.9 133.3 365.1 202C310.3 270.7 274.1 341.5 216.4 392.5C158.7 443.5 79.3 474.7 8.4 460.2C-62.5 445.6 -125 385.2 -211.6 350.8C-298.2 316.5 -408.9 308.3 -468.3 254.1C-527.7 200 -535.9 100 -516.4 11.3C-496.9 -77.5 -449.8 -155 -397.3 -221.1C-344.8 -287.2 -286.9 -341.9 -219.8 -388.8C-152.7 -435.8 -76.3 -474.9 10 -492.2C96.3 -509.5 192.7 -505 258.2 -457.2" fill="#1a5dc8"></path></g></svg>