<svg id="visual" viewBox="0 0 900 600" width="900" height="600" xmlns="http://www.w3.org/2000/svg" xmlns:xlink="http://www.w3.org/1999/xlink" version="1.1"><rect x="0" y="0" width="900" height="600" fill="#FFFFFF"></rect><g transform="translate(876.3519897234634 -49.143549561237734)"><path d="M170 -275.1C227.3 -261.3 285.5 -229.9 317.7 -181.1C349.9 -132.3 355.9 -66.2 363.6 4.4C371.2 75 380.5 150 344.6 192.4C308.8 234.9 227.9 244.7 163 281.6C98 318.4 49 382.2 -1.2 384.2C-51.3 386.2 -102.7 326.5 -157.8 284C-212.9 241.5 -271.9 216.2 -300.4 171.8C-328.9 127.3 -326.9 63.7 -315.5 6.6C-304.1 -50.5 -283.3 -101 -257.4 -150.1C-231.6 -199.1 -200.8 -246.8 -157.1 -268.4C-113.3 -290.1 -56.7 -285.7 -0.2 -285.4C56.3 -285.1 112.7 -288.9 170 -275.1" fill="#1a5dc8"></path></g></svg>