<svg id="visual" viewBox="0 0 900 600" width="900" height="600" xmlns="http://www.w3.org/2000/svg" xmlns:xlink="http://www.w3.org/1999/xlink" version="1.1"><rect x="0" y="0" width="900" height="600" fill="#FFFFFF"></rect><g transform="translate(920.2506915557706 -26.83719526080833)"><path d="M87.5 -149.7C109.3 -138.9 120 -107.2 127 -78.8C134.1 -50.3 137.3 -25.2 140.7 1.9C144 29 147.3 58 138.3 83C129.3 107.9 107.9 128.9 82.8 151.9C57.7 174.9 28.8 199.9 -3.7 206.4C-36.3 212.9 -72.7 200.9 -96.9 177.4C-121.2 153.9 -133.3 118.9 -149 87.5C-164.7 56 -183.8 28 -184.6 -0.4C-185.3 -28.8 -167.5 -57.7 -148.5 -83.2C-129.4 -108.8 -108.9 -131 -84 -139.9C-59 -148.9 -29.5 -144.4 1.7 -147.3C32.8 -150.2 65.7 -160.4 87.5 -149.7" fill="#1a5dc8"></path></g></svg>