<svg xmlns="http://www.w3.org/2000/svg" xmlns:xlink="http://www.w3.org/1999/xlink" width="500" zoomAndPan="magnify" viewBox="0 0 375 374.999991" height="500" preserveAspectRatio="xMidYMid meet" version="1.0"><defs><clipPath id="d708df5ebd"><path d="M 60.003906 190 L 272 190 L 272 263 L 60.003906 263 Z M 60.003906 190 " clip-rule="nonzero"/></clipPath><clipPath id="b74deae1dd"><path d="M 274 77 L 315.003906 77 L 315.003906 118 L 274 118 Z M 274 77 " clip-rule="nonzero"/></clipPath><clipPath id="bbaba643c7"><path d="M 288 42 L 315.003906 42 L 315.003906 70 L 288 70 Z M 288 42 " clip-rule="nonzero"/></clipPath></defs><rect x="-37.5" width="450" fill="#ffffff" y="-37.499999" height="449.999989" fill-opacity="1"/><rect x="-37.5" width="450" fill="#ffffff" y="-37.499999" height="449.999989" fill-opacity="1"/><rect x="-37.5" width="450" fill="#ffffff" y="-37.499999" height="449.999989" fill-opacity="1"/><g clip-path="url(#d708df5ebd)"><path fill="#26cdd1" d="M 60.003906 262.847656 L 60.003906 190.859375 L 233.929688 190.859375 C 254.941406 190.859375 271.976562 207.902344 271.976562 228.925781 L 271.976562 262.847656 Z M 60.003906 262.847656 " fill-opacity="1" fill-rule="nonzero"/></g><path fill="#0297bf" d="M 201.972656 332.902344 L 130.015625 332.902344 L 130.015625 158.871094 C 130.015625 137.847656 147.046875 120.804688 168.0625 120.804688 L 201.960938 120.804688 L 201.960938 332.902344 Z M 201.972656 332.902344 " fill-opacity="1" fill-rule="nonzero"/><path fill="#2f4faa" d="M 248.488281 177.421875 L 214.730469 177.421875 L 214.730469 143.644531 C 214.730469 131.035156 224.953125 120.804688 237.558594 120.804688 L 271.316406 120.804688 L 271.316406 154.582031 C 271.316406 167.191406 261.089844 177.421875 248.488281 177.421875 Z M 248.488281 177.421875 " fill-opacity="1" fill-rule="nonzero"/><path fill="#26cdd1" d="M 252.164062 113.121094 L 231.292969 113.121094 L 231.292969 92.222656 C 231.292969 84.421875 237.617188 78.105469 245.402344 78.105469 L 266.273438 78.105469 L 266.273438 98.988281 C 266.273438 106.789062 259.949219 113.121094 252.164062 113.121094 Z M 252.164062 113.121094 " fill-opacity="1" fill-rule="nonzero"/><g clip-path="url(#b74deae1dd)"><path fill="#4a75d3" d="M 298.773438 117.339844 L 274.765625 117.339844 L 274.765625 93.332031 C 274.765625 84.363281 282.035156 77.089844 290.996094 77.089844 L 315.003906 77.089844 L 315.003906 101.109375 C 315.003906 110.066406 307.734375 117.339844 298.773438 117.339844 Z M 298.773438 117.339844 " fill-opacity="1" fill-rule="nonzero"/></g><path fill="#0297bf" d="M 292.070312 155.644531 L 281.527344 155.644531 L 281.527344 145.09375 C 281.527344 136.148438 288.773438 128.914062 297.699219 128.914062 L 308.242188 128.914062 L 308.242188 139.460938 C 308.242188 148.394531 301 155.644531 292.070312 155.644531 Z M 292.070312 155.644531 " fill-opacity="1" fill-rule="nonzero"/><g clip-path="url(#bbaba643c7)"><path fill="#0297bf" d="M 298.820312 69.015625 L 288.277344 69.015625 L 288.277344 58.46875 C 288.277344 49.523438 295.519531 42.273438 304.460938 42.273438 L 315.003906 42.273438 L 315.003906 52.824219 C 315.003906 61.769531 307.757812 69.015625 298.820312 69.015625 Z M 298.820312 69.015625 " fill-opacity="1" fill-rule="nonzero"/></g><path fill="#26cdd1" d="M 130.015625 190.859375 L 201.960938 190.859375 L 201.960938 262.847656 L 130.015625 262.847656 Z M 130.015625 190.859375 " fill-opacity="1" fill-rule="nonzero"/><path fill="#2f4faa" d="M 130.015625 190.859375 L 201.960938 190.859375 L 201.960938 262.847656 L 130.015625 262.847656 Z M 130.015625 190.859375 " fill-opacity="1" fill-rule="nonzero"/></svg>