<svg id="visual" viewBox="0 0 900 600" width="900" height="600" xmlns="http://www.w3.org/2000/svg" xmlns:xlink="http://www.w3.org/1999/xlink" version="1.1"><rect x="0" y="0" width="900" height="600" fill="#ebf2fe"></rect><path d="M442 0L464.7 20C487.3 40 532.7 80 531 120C529.3 160 480.7 200 447.2 240C413.7 280 395.3 320 397.2 360C399 400 421 440 450.7 480C480.3 520 517.7 560 536.3 580L555 600L0 600L0 580C0 560 0 520 0 480C0 440 0 400 0 360C0 320 0 280 0 240C0 200 0 160 0 120C0 80 0 40 0 20L0 0Z" fill="#1b53ac" stroke-linecap="round" stroke-linejoin="miter"></path></svg>