<svg xmlns="http://www.w3.org/2000/svg" viewBox="0 0 500 500"><g id="freepik--character-3--inject-2"><path d="M342.37,437.35l1.45,24.08-4.35,19.37a2.48,2.48,0,0,0,2,3h0a2.44,2.44,0,0,0,2.14-.72c3.55-3.66,16.3-17.09,16.25-18.6-.07-1.94.24-25.86.24-25.86Z" style="fill:#1B53AC"></path><path d="M341.51,483.79l18.4-22.08,0,1.79a2.93,2.93,0,0,1-.49,2.2,205,205,0,0,1-15.53,17.74c-.57.6-1.61.49-2.42.35Z" style="fill:#263238"></path><path d="M354.68,454.89a1.49,1.49,0,0,0-.34,2,1.44,1.44,0,0,0,2,.35,1.57,1.57,0,0,0,.35-2.08,1.49,1.49,0,0,0-2.07-.14" style="fill:#fff"></path><path d="M346.62,473.05a5.29,5.29,0,0,0-5-2.22c0-.06.27-.26.83-.36a3.92,3.92,0,0,1,3.85,1.72C346.63,472.67,346.68,473,346.62,473.05Z" style="fill:#263238"></path><path d="M345,476.34a21.59,21.59,0,0,0-2.18-.95,20.74,20.74,0,0,0-2.36-.22,2.72,2.72,0,0,1,2.5-.3C344.42,475.24,345.15,476.27,345,476.34Z" style="fill:#263238"></path><path d="M349.67,468.8a23.94,23.94,0,0,0-3.26-1.71,25.19,25.19,0,0,0-3.61-.7,6.75,6.75,0,0,1,6.87,2.41Z" style="fill:#263238"></path><path d="M349.84,461.44c-.06.15-1.41-.36-3.15-.36s-3.09.47-3.15.32a4.82,4.82,0,0,1,3.15-.85A4.74,4.74,0,0,1,349.84,461.44Z" style="fill:#263238"></path><path d="M349.59,454.36a7.86,7.86,0,0,0-6.43.46c0-.05.21-.36.76-.7a5.21,5.21,0,0,1,2.37-.75,5.35,5.35,0,0,1,2.46.4C349.33,454,349.63,454.31,349.59,454.36Z" style="fill:#263238"></path><path d="M346.32,452.55a2.07,2.07,0,0,1-.07-.91,6.26,6.26,0,0,1,.64-2.41,2.77,2.77,0,0,1,1.15-1.39,1,1,0,0,1,1.13.18,1.57,1.57,0,0,1,.42,1.07,3.49,3.49,0,0,1-2.94,3.35,4.06,4.06,0,0,1-4-2,1.39,1.39,0,0,1-.11-1.17,1,1,0,0,1,1-.55,3.5,3.5,0,0,1,1.62.76,7.08,7.08,0,0,1,1.71,1.82,2,2,0,0,1,.4.82,10.77,10.77,0,0,0-2.33-2.33,3.18,3.18,0,0,0-1.43-.63.5.5,0,0,0-.54.3.94.94,0,0,0,.11.76,3.64,3.64,0,0,0,3.54,1.67,3,3,0,0,0,2.53-2.81,1.11,1.11,0,0,0-.26-.76.53.53,0,0,0-.62-.11,2.58,2.58,0,0,0-1,1.16A9.38,9.38,0,0,0,346.32,452.55Z" style="fill:#263238"></path><path d="M381.6,438.67l-.83,19.92s20,7.53,20.18,11.23l-38.68-.22V438.51Z" style="fill:#1B53AC"></path><path d="M368.82,456.85a1.57,1.57,0,0,0-1.1,1.79,1.52,1.52,0,0,0,1.77,1.11,1.67,1.67,0,0,0,1.16-1.91,1.59,1.59,0,0,0-2-.95" style="fill:#fff"></path><path d="M362.27,469.6v-2.83l37.29,1.08s1.31.89,1.39,2Z" style="fill:#263238"></path><path d="M381.4,458.4c0,.18-.95.26-1.88.87s-1.44,1.39-1.61,1.31.11-1.16,1.26-1.87S381.44,458.22,381.4,458.4Z" style="fill:#263238"></path><path d="M385.45,460.1c0,.18-.78.5-1.42,1.29s-.84,1.64-1,1.63-.3-1.08.52-2S385.45,459.92,385.45,460.1Z" style="fill:#263238"></path><path d="M387.73,465c-.18,0-.43-.9.06-1.93s1.37-1.44,1.45-1.28-.47.7-.86,1.56S387.91,465,387.73,465Z" style="fill:#263238"></path><path d="M381.09,453.83c-.08.18-.95-.09-2,0s-1.9.4-2,.23.71-.83,2-.89S381.18,453.69,381.09,453.83Z" style="fill:#263238"></path><path d="M395.88,345.67s-10,90.92-13.35,105.43h-39.8s-11.49-79.67-13.35-101.62Z" style="fill:#263238"></path><path d="M361,357.05c-.14,0-.25,21.05-.25,47s.11,47,.25,47,.26-21.05.26-47S361.13,357.05,361,357.05Z" style="fill:#455a64"></path><path d="M408.38,257.9c-1.82-10.14-9.78-89.78-9.78-89.78l-19.56-7-8.41-9.77-24.34,3.41-8,8s-15.35,4.81-19.22,7.54c0,0-8.37,5.67-11.11,14.61-2.1,6.85-12.15,40.67-12.15,40.67s-2.74,8.25-1.84,13.83c.52,3.18,2.7,9.5,7.94,12.28a19.51,19.51,0,0,0,14.12,1.41l-5.26,90.22s.45,9.09,24.56,13,81.32-7.75,81.32-7.75S410.2,268,408.38,257.9Z" style="fill:#fff"></path><path d="M408.38,257.9s.39,2.14.87,6.25,1.11,10.19,1.85,18c1.49,15.66,3.48,38.32,5.79,66.32v.17l-.16,0q-11.43,2.28-24.17,4.25c-8.48,1.3-17.37,2.5-26.65,3.36s-19,1.51-28.93.38a67.43,67.43,0,0,1-14.78-3.51,29.65,29.65,0,0,1-6.92-3.56,15.76,15.76,0,0,1-2.92-2.68,7.61,7.61,0,0,1-1.8-3.62h0v0c1.57-26.93,3.27-56.23,5-86.62.07-1.21.14-2.41.21-3.59l.34.26a20.31,20.31,0,0,1-8.49.49,17.59,17.59,0,0,1-4.09-1.12,14.17,14.17,0,0,1-3.69-2.09A17.1,17.1,0,0,1,295,243.8a20.91,20.91,0,0,1-1.2-4,18.16,18.16,0,0,1-.22-4.16,41.36,41.36,0,0,1,1.39-8.09q1.17-3.9,2.31-7.77,2.31-7.71,4.56-15.26t4.47-14.93a69.75,69.75,0,0,1,2.39-7.29,26.87,26.87,0,0,1,4.06-6.41,34.79,34.79,0,0,1,5.37-5.21,16.76,16.76,0,0,1,3.2-1.92c1.1-.53,2.23-1,3.36-1.46,4.52-1.82,9-3.35,13.54-4.79l-.1.06,8-7.95.06-.06h.07l24.34-3.4h.11l.08.09L379.2,161l-.09-.06,19.55,7,.11,0,0,.12c2.76,27.76,5.08,50.22,6.76,65.73.83,7.76,1.52,13.78,2,17.85.26,2,.44,3.6.6,4.64s.22,1.58.22,1.58-.4-2.13-.93-6.2-1.25-10.09-2.11-17.85c-1.74-15.51-4.12-38-6.93-65.71l.12.16-19.56-7-.05,0,0,0-8.42-9.77.19.07L346.33,155l.13-.06-8,8,0,0,0,0c-4.47,1.44-9,3-13.5,4.78-1.12.46-2.24.93-3.33,1.46a15.11,15.11,0,0,0-3.11,1.87,34.25,34.25,0,0,0-5.3,5.13,26.63,26.63,0,0,0-4,6.3,68.9,68.9,0,0,0-2.37,7.24q-2.19,7.37-4.45,14.93t-4.56,15.27q-1.14,3.85-2.3,7.74a40.72,40.72,0,0,0-1.37,8,17.5,17.5,0,0,0,.21,4,19.88,19.88,0,0,0,1.17,3.9,16.51,16.51,0,0,0,4.7,6.6c4.36,3.31,10.46,4.1,15.78,2.63l.36-.1,0,.37c-.07,1.18-.14,2.38-.21,3.59-1.78,30.39-3.49,59.68-5.06,86.62v0a7.19,7.19,0,0,0,1.68,3.32,15.86,15.86,0,0,0,2.82,2.61,29.92,29.92,0,0,0,6.82,3.5,67.24,67.24,0,0,0,14.66,3.49c9.88,1.13,19.58.43,28.83-.35s18.15-2,26.63-3.33,16.54-2.71,24.15-4.21l-.15.2c-2.26-28-4.19-50.67-5.62-66.33-.7-7.83-1.31-13.91-1.75-18-.24-2.06-.39-3.63-.56-4.68S408.38,257.9,408.38,257.9Z" style="fill:#263238"></path><path d="M395.19,183.2,395,205.94l2.56,23.65-20.3,2.28,1.41,26.92s26.12-.28,38.63-5.29,9.51-17.45,8.63-23c-1.48-9.23-15.75-54.12-18.65-57.3-3.49-3.84-9.47-5.37-9.47-5.37Z" style="fill:#fff"></path><path d="M368.81,151.37a9.7,9.7,0,0,1,2.27,7.5c-.45,4.78-3.86,13.82-5.91,16.55s-14.55,26-14.55,26l-6.37-33.28-.4-10.89,2.44-2.45Z" style="fill:#1B53AC"></path><path d="M353.62,200.77a3.82,3.82,0,0,0,.56-.36l1.52-1.11c1.37-1,3.26-2.42,5.57-4.15l8.21-6.2,4.84-3.69a4.31,4.31,0,0,0,1.89-2.72,7.28,7.28,0,0,0-.65-3.34,41.85,41.85,0,0,0-3.35-6.27l-.3.36,8.68,3.85.35.16,0-.38c-.54-4.68-1-8.59-1.32-11.4-.17-1.32-.3-2.39-.4-3.18a7,7,0,0,0-.19-1.12,8.69,8.69,0,0,0,.05,1.13c.07.8.17,1.87.29,3.2.28,2.81.67,6.73,1.13,11.42l.31-.22-8.68-3.92-.72-.33.42.69a42.28,42.28,0,0,1,3.29,6.19,6.91,6.91,0,0,1,.63,3.09,3.89,3.89,0,0,1-1.7,2.4l-4.81,3.7-8.15,6.3-5.47,4.28-1.47,1.18A2.72,2.72,0,0,0,353.62,200.77Z" style="fill:#263238"></path><path d="M350.62,201.4a3.39,3.39,0,0,0-.32-.52l-1-1.42-3.63-5.21c-1.53-2.2-3.35-4.81-5.33-7.75-1-1.47-2-3-3.05-4.64-.52-.81-1-1.64-1.51-2.5a5.57,5.57,0,0,1-1-2.67,4.73,4.73,0,0,1,1.87-3.21,14.4,14.4,0,0,1,3.16-2.06l1.2-.59-1.33.13-9.4.88.17.34,5.76-6.83,1.57-1.91a7.26,7.26,0,0,0,.52-.7,4,4,0,0,0-.62.62l-1.65,1.83-5.89,6.72-.34.38.51,0,9.42-.81-.12-.46a14.3,14.3,0,0,0-3.29,2.12,7.48,7.48,0,0,0-1.37,1.54,3.91,3.91,0,0,0-.68,2,2.76,2.76,0,0,0,.09.81l.1.4.16.36a14.55,14.55,0,0,0,.71,1.36c.49.87,1,1.71,1.53,2.52,1,1.63,2.08,3.17,3.08,4.63,2,2.93,3.86,5.53,5.43,7.7s2.86,3.91,3.76,5.11l1.05,1.37A2.62,2.62,0,0,0,350.62,201.4Z" style="fill:#263238"></path><path d="M349.54,357.1c.14,0,.66-35,1.16-78.13s.79-78.14.65-78.14-.66,35-1.16,78.13S349.4,357.09,349.54,357.1Z" style="fill:#263238"></path><path d="M419.76,232.11a3.81,3.81,0,0,0-.7-.61,16,16,0,0,0-2.12-1.38,20.5,20.5,0,0,0-3.44-1.51,21.91,21.91,0,0,0-9.09-1.06,20.69,20.69,0,0,0-3.7.7,15.13,15.13,0,0,0-2.37.85,3.29,3.29,0,0,0-.82.44c0,.09,1.24-.45,3.28-.95a24.43,24.43,0,0,1,3.65-.57,26.37,26.37,0,0,1,4.5.08,26.1,26.1,0,0,1,4.41,1,23.28,23.28,0,0,1,3.41,1.39C418.65,231.39,419.7,232.19,419.76,232.11Z" style="fill:#263238"></path><path d="M412.51,221.59s-.24-.09-.69-.14a11.32,11.32,0,0,0-1.93,0,15.45,15.45,0,0,0-11,5.71,10.46,10.46,0,0,0-1.07,1.59c-.22.4-.32.63-.29.65s.58-.82,1.64-2a17,17,0,0,1,4.86-3.79,17.34,17.34,0,0,1,5.91-1.79C411.51,221.59,412.51,221.68,412.51,221.59Z" style="fill:#263238"></path><path d="M380,231.66a8.27,8.27,0,0,0,1.33-.07l3.67-.36,12.55-1.4.23,0,0-.24c-.16-1.8-.34-3.72-.57-5.69-.73-6.41-1.58-12.19-2.23-16.36-.33-2.09-.61-3.78-.82-4.94-.1-.54-.18-1-.25-1.34a1.92,1.92,0,0,0-.12-.46,1.6,1.6,0,0,0,0,.48c0,.36.09.81.16,1.35.16,1.25.38,2.92.65,5,.56,4.19,1.35,10,2.09,16.37.22,2,.41,3.88.58,5.68l.22-.27L385,230.91l-3.65.51A8.31,8.31,0,0,0,380,231.66Z" style="fill:#263238"></path><path d="M399.74,169.26a2.34,2.34,0,0,0,.4.14l1.18.35a13.72,13.72,0,0,1,4.23,2c1.65,1.21,3,3.4,4.16,6.06s2.12,5.86,3.26,9.35c2.23,7,4.79,15.36,7.53,24.68,2.47,9.35,6.66,19.49,5.88,30.8l0,1v0a13.82,13.82,0,0,1-3.42,6.61,18.15,18.15,0,0,1-6.32,3.66,47.06,47.06,0,0,1-6.94,1.83q-3.46.71-6.83,1.17c-2.24.32-4.43.5-6.58.62l-6.27.41-11.37.74.2.17c-.62-8.18-1.12-14.81-1.47-19.43-.18-2.28-.32-4-.42-5.29-.06-.58-.1-1-.13-1.37s-.06-.47-.06-.47a4.15,4.15,0,0,0,0,.47c0,.34,0,.79.07,1.38.07,1.24.18,3,.33,5.29.3,4.62.75,11.26,1.3,19.45V259h.18L390,258.3l6.27-.39c2.15-.11,4.38-.29,6.62-.6s4.54-.7,6.87-1.16a47.7,47.7,0,0,0,7-1.84,18.4,18.4,0,0,0,6.51-3.78,14.3,14.3,0,0,0,3.56-6.86v0c0-.31,0-.64,0-1,.08-5.59-.16-11.18-1.76-16.27-1.37-5.11-2.81-10-4.18-14.67-2.77-9.32-5.36-17.68-7.64-24.67-1.16-3.48-2.18-6.65-3.34-9.35s-2.59-4.88-4.31-6.1a13.18,13.18,0,0,0-4.31-1.95c-.52-.15-.92-.24-1.19-.3A3.44,3.44,0,0,0,399.74,169.26Z" style="fill:#263238"></path><path d="M383.3,233.85c-.3-.3-6.08-4.3-6.08-4.3s-.33-2.78-1.82-3.27a4.86,4.86,0,0,0-4.65-2.48h-8.61l-7.42,8.32A2.12,2.12,0,0,0,357,234l-2,3.83s2.34,1.71,4.32.33S364,234.4,364,234.4l-4,6.23s.34,1.39,2.55.4a15,15,0,0,0,4.38-3.76l6.63-.7L368,238.45l-4.36,4s.4,1.39,2.38.89a16,16,0,0,0,4.26-2.07l3,.19a4.52,4.52,0,0,0,2.47,3.27,11,11,0,0,0,5.05,1l6.52,2.27C387.35,244.14,385.3,238.34,383.3,233.85Z" style="fill:#936760"></path><path d="M357,234a15.05,15.05,0,0,0,1.54-1.79,20,20,0,0,1,1.73-1.84,6.18,6.18,0,0,1,2.56-1.56,24.69,24.69,0,0,1,5.5-1.11,16.81,16.81,0,0,0,2.34-.27,7.94,7.94,0,0,0-2.36-.09,20.1,20.1,0,0,0-5.65,1,6,6,0,0,0-1.52.71,8.45,8.45,0,0,0-1.19,1,16,16,0,0,0-1.69,2A8.55,8.55,0,0,0,357,234Z" style="fill:#6f4c47"></path><path d="M364,234.4c.07,0,.39-.31,1-.77a6.59,6.59,0,0,1,2.62-1.18,16.71,16.71,0,0,1,2.93-.31,3.23,3.23,0,0,0,1.25-.15c0-.07-.47-.15-1.24-.21a10.43,10.43,0,0,0-3.05.17,5.7,5.7,0,0,0-2.74,1.41C364.2,233.92,364,234.36,364,234.4Z" style="fill:#6f4c47"></path><path d="M378.65,236c.05,0,.31-.15.54-.6a2.76,2.76,0,0,0-1-3.54c-.43-.27-.75-.3-.77-.24s1.08.63,1.45,2A4.8,4.8,0,0,1,378.65,236Z" style="fill:#6f4c47"></path><path d="M383.9,244.24c-.09-.11-.77.3-1.67.64s-1.69.47-1.68.62.87.23,1.86-.15S384,244.34,383.9,244.24Z" style="fill:#6f4c47"></path><path d="M380.11,231.71s.45.15,1.16.61a7,7,0,0,1,2.3,2.65,37.82,37.82,0,0,1,2,4.94,26.33,26.33,0,0,1,1.43,6.33,14.09,14.09,0,0,1-.54,5.33,9.63,9.63,0,0,1-2.3,4,8.59,8.59,0,0,1-2.94,2,7.74,7.74,0,0,1-2.16.53l-.31,0,.28.1a2.32,2.32,0,0,0,.72.21,3,3,0,0,0-.66-.34l0,.13a6.5,6.5,0,0,0,2.26-.4,8.55,8.55,0,0,0,3.13-2,10,10,0,0,0,2.47-4.09,14.3,14.3,0,0,0,.58-5.52,25.24,25.24,0,0,0-1.49-6.44,33.63,33.63,0,0,0-2.1-5,6.75,6.75,0,0,0-2.51-2.64,3.84,3.84,0,0,0-.92-.39C380.23,231.7,380.11,231.69,380.11,231.71Z" style="fill:#263238"></path><path d="M396.23,188.12a15.75,15.75,0,0,0-1.6,3.67,16,16,0,0,0-1.12,3.84,31.45,31.45,0,0,0,2.72-7.51Z" style="fill:#263238"></path><path d="M315.76,254.21a3.6,3.6,0,0,1,0-.68q0-.75.06-1.95c.06-1.75.14-4.18.23-7.15.17-6,.29-14.39.26-23.61s-.13-17.53-.18-23.63c0-3,0-5.4,0-7.16,0-.8,0-1.44,0-1.94a3.22,3.22,0,0,1,0-.68,3,3,0,0,1,.06.68c0,.49.05,1.14.08,1.94,0,1.75.11,4.18.19,7.16.14,6,.31,14.39.33,23.62s-.15,17.59-.41,23.63c-.13,3-.27,5.46-.4,7.15-.06.8-.11,1.45-.15,1.94A3,3,0,0,1,315.76,254.21Z" style="fill:#263238"></path><path d="M314.63,224.2a4.42,4.42,0,0,1-2.09-.31c-1.11-.3-2-.66-1.94-.8a4.45,4.45,0,0,1,2.08.3C313.79,223.7,314.67,224.06,314.63,224.2Z" style="fill:#263238"></path><path d="M300.55,199.27s-2.09-4.16-4.3-4.11c-1.48,0-2.48,3.45-2.48,3.45s-2.9-2.07-4,0,1,5.24,1,5.24-2.21,1.24-2.49,3a12.51,12.51,0,0,0,0,3.45,5.33,5.33,0,0,0-.69,3.86c.56,1.93,5.66,9.79,5.66,9.79l5.65,3.18,1.24,4.24c5.4-1.06,8.12-3.35,8.72-9.82,0,0,3.7-11,3-13s-4.14-4.83-4.14-4.83l-2.73-2a4.57,4.57,0,0,0-1.09,2.83c0,1.66-.32,1.54-.32,1.54Z" style="fill:#936760"></path><path d="M304.11,203.21a5.1,5.1,0,1,1-5.1-5.11A5.1,5.1,0,0,1,304.11,203.21Z" style="fill:#e0e0e0"></path><path d="M304.11,203.21c-.05,0,0-.46-.25-1.22A5.14,5.14,0,0,0,302,199.3a4.88,4.88,0,1,0,0,7.82,5.18,5.18,0,0,0,1.87-2.69c.21-.77.2-1.22.25-1.22s0,.11,0,.33a3.68,3.68,0,0,1-.1.94,5.05,5.05,0,0,1-1.84,2.93,5.25,5.25,0,0,1-5,.82,5.31,5.31,0,0,1-2.5-1.85,5.31,5.31,0,0,1,0-6.34,5.31,5.31,0,0,1,7.52-1,5.1,5.1,0,0,1,1.84,2.94,3.64,3.64,0,0,1,.1.94C304.14,203.1,304.13,203.21,304.11,203.21Z" style="fill:#263238"></path><path d="M299,208a4.75,4.75,0,1,1,4.75-4.75A4.75,4.75,0,0,1,299,208Zm0-8.5a3.75,3.75,0,1,0,3.75,3.75A3.75,3.75,0,0,0,299,199.52Z" style="fill:#fff"></path><path d="M325,247.17a10.78,10.78,0,0,1-1.51-.08c-8.56-.87-15.48-7.72-20-19.79a78.68,78.68,0,0,1-4.24-17.87l2-.19c0,.34,3.51,33.93,22.49,35.87.56.07,13,1.57,16.47-12.28a147.25,147.25,0,0,0,3.54-24.56c.26-3.92,1.73-16.48,2.43-21.15l.69-4.2,2,.32-.69,4.19c-.7,4.62-2.16,17.09-2.41,20.95a149.44,149.44,0,0,1-3.6,24.93C338.94,245.93,328.83,247.17,325,247.17Z" style="fill:#455a64"></path><path d="M290.58,203.85s.33-.19,1-.12a2.71,2.71,0,0,1,1.1.42,14.21,14.21,0,0,1,1.23.89,37.71,37.71,0,0,1,3,2.6,20.18,20.18,0,0,1,1.61,1.69,6.21,6.21,0,0,1,.71,1.07,1.5,1.5,0,0,1,.07,1.45,1.94,1.94,0,0,1-1.32.78,4.73,4.73,0,0,1-1.4.07l.26-.36a1.73,1.73,0,0,1-.29,1.43,4.29,4.29,0,0,1-.85.95,1.89,1.89,0,0,1-1.2.37,4.23,4.23,0,0,1-1.09-.13,11.89,11.89,0,0,1-3.11-1.28h.14a8,8,0,0,1-1.48.8,8.15,8.15,0,0,1,1.34-1l.05,0,.08,0a13.15,13.15,0,0,0,3.06,1.11,2.46,2.46,0,0,0,1.91-.21,3.56,3.56,0,0,0,.73-.85,1.41,1.41,0,0,0,.25-.95l-.13-.38.39,0c.76.05,1.8,0,2.22-.61a1.05,1.05,0,0,0-.09-1,5.07,5.07,0,0,0-.65-1,18,18,0,0,0-1.55-1.68c-1-1-2-1.94-2.85-2.66a5.71,5.71,0,0,0-2.14-1.39A5.82,5.82,0,0,0,290.58,203.85Z" style="fill:#6f4c47"></path><path d="M308,213.21c-.08,0-.27-.67-.94-1.59s-1.81-2-2.79-3.58a5.16,5.16,0,0,1-.79-2.46,5.55,5.55,0,0,1,.35-2.08,4.1,4.1,0,0,1,.91-1.66c.07,0-.25.68-.56,1.77a6.09,6.09,0,0,0-.22,1.94,4.91,4.91,0,0,0,.76,2.22c.91,1.45,2.07,2.61,2.65,3.65A3.18,3.18,0,0,1,308,213.21Z" style="fill:#6f4c47"></path><path d="M296.55,212.45c-.05.06-.55-.31-1.25-1-.18-.16-.38-.34-.6-.52l-.73-.52-1.66-1.22a3.33,3.33,0,0,0-1.82-.56,2.67,2.67,0,0,0-1.46.53,3,3,0,0,0-.94,1.14s-.07-.16,0-.44a2.19,2.19,0,0,1,.7-1,2.9,2.9,0,0,1,1.66-.72,3.53,3.53,0,0,1,2.13.61c.63.44,1.17.88,1.68,1.28l.72.57c.21.2.4.4.57.58A6.41,6.41,0,0,1,296.55,212.45Z" style="fill:#6f4c47"></path><path d="M294.87,200.21c-.14,0-.37-.35-.63-.82s-.47-.87-.36-1,.52.19.81.72S295,200.17,294.87,200.21Z" style="fill:#6f4c47"></path><path d="M315.23,230a31.36,31.36,0,0,1-3.3-4.66,31.4,31.4,0,0,1-2.87-5,31.15,31.15,0,0,1,3.3,4.67A31.07,31.07,0,0,1,315.23,230Z" style="fill:#263238"></path><path d="M348.8,184.58l-.3-.16c-.23-.11-5.67-2.91-8.23-6.72s3-20.67,4.12-24l1.89.65c-2.7,7.89-5.84,20-4.35,22.23,2,2.92,6.06,5.29,7.19,5.91,3-.56,10-2.12,11.95-3.62,2.78-2.11,10.92-16.55,13.82-21.93l1.76.95c-1.09,2-10.75,19.81-14.37,22.57-2.81,2.14-12.1,3.87-13.15,4.06Z" style="fill:#455a64"></path><path d="M368.51,93.56c3.38-3.27,11.15-2.23,12.85.18a6,6,0,0,1,7.62,3.1l8.18,2.36a8.63,8.63,0,0,1,3.88,1.87c1,1,1.42,2.84.44,3.92,2.88,1,3.74,5.38,1.43,7.34a3.16,3.16,0,0,1-.76,4.52,31.44,31.44,0,0,1,4.73,9.59,6.42,6.42,0,0,1,.13,4.4c-.61,1.37-2.52,2.22-3.68,1.26a3.7,3.7,0,0,1-.08,4c1.4.13,1.67,2.32.64,3.28s-2.6,1-4,.84-2.91-.3-4.12.43a1.28,1.28,0,0,0,.4.92,5.79,5.79,0,0,1,.77,7.95l-.5.61c-.89,1.1-3,2-4.27,2.6-3.28,1.44-5.15,1-8.73,1.29.82,2.35-5.27,7-11.53,1.62a127.15,127.15,0,0,1-36.55,2.53c-1.94-.12-4.26-.54-5-2.33a4.84,4.84,0,0,1-4.34-1.75,14.18,14.18,0,0,1-2.33-4.27,8.49,8.49,0,0,1-5.59-8,10.51,10.51,0,0,1-3.46-7.69,6.16,6.16,0,0,1-3-8.52,36.88,36.88,0,0,1,4.79-11.19c-2.19-.63-2.84-3.68-1.78-5.71s3.16-3.23,5.16-4.33c-1.69.33-3-1.85-2.5-3.5s2.09-2.71,3.63-3.5a31.07,31.07,0,0,1,7.1-2.62c1-2.88,4.95-6,7.78-7.09,11.41-4.51,19.25-5.32,32.68,5.93" style="fill:#263238"></path><path d="M336.06,134.3a4,4,0,0,0-1.5-1.19h.12c-.11,0-.22-.06-.33-.09a1.62,1.62,0,0,0-1.26,0h0a3,3,0,0,0-1.73,1.26,3.49,3.49,0,0,0,.09,3.63,2.67,2.67,0,0,0,5-.48A3.31,3.31,0,0,0,336.06,134.3Z" style="fill:#455a64"></path><path d="M336.3,112.63c1.38-7.56,7.54-16.31,15-14.61l23,8.8a4.5,4.5,0,0,1,3.46,5l-7.09,49.4-18.29,13.45h0c-.15-1-8.05-13.45-8.05-13.45-.41-3.68-.83-7.75-.83-7.73s-9.54-2.77-10-15.71C333.22,131.35,334.77,121,336.3,112.63Z" style="fill:#936760"></path><path d="M337.6,123.33a1.64,1.64,0,0,0,1.37,1.83,1.58,1.58,0,0,0,1.86-1.27,1.64,1.64,0,0,0-1.38-1.83A1.56,1.56,0,0,0,337.6,123.33Z" style="fill:#263238"></path><path d="M337.91,118.28c.18.24,1.52-.53,3.27-.32s2.93,1.25,3.15,1.05-.06-.49-.57-1a4.55,4.55,0,0,0-2.49-1.11,4.39,4.39,0,0,0-2.63.52C338.05,117.81,337.82,118.18,337.91,118.28Z" style="fill:#263238"></path><path d="M353.56,124.85a1.65,1.65,0,0,0,1.38,1.83,1.57,1.57,0,0,0,1.85-1.27,1.64,1.64,0,0,0-1.38-1.83A1.56,1.56,0,0,0,353.56,124.85Z" style="fill:#263238"></path><path d="M355.1,120.65c.17.24,1.52-.53,3.27-.32s2.93,1.24,3.15,1-.06-.49-.57-1a4.55,4.55,0,0,0-2.49-1.1,4.31,4.31,0,0,0-2.63.52C355.24,120.18,355,120.54,355.1,120.65Z" style="fill:#263238"></path><path d="M347.2,132.89a12,12,0,0,0-2.79-.85c-.44-.1-.85-.24-.89-.55a2.3,2.3,0,0,1,.45-1.29L345.7,127c2.41-4.64,4.22-8.47,4-8.56s-2.3,3.58-4.71,8.21c-.58,1.15-1.14,2.24-1.67,3.28a2.6,2.6,0,0,0-.44,1.73,1.12,1.12,0,0,0,.66.74,3,3,0,0,0,.74.2A11.6,11.6,0,0,0,347.2,132.89Z" style="fill:#263238"></path><path d="M343.53,153.49A32.59,32.59,0,0,0,361.08,151s-3.93,8.87-17.11,6.61Z" style="fill:#6f4c47"></path><path d="M347,137.09a4.34,4.34,0,0,1,3.78-1.46,2.8,2.8,0,0,1,2.15,1.53,2.59,2.59,0,0,1-3.34,3.51,6.45,6.45,0,0,1-2.39-1.9,2.07,2.07,0,0,1-.48-.72.88.88,0,0,1,.18-.88" style="fill:#6f4c47"></path><path d="M352.21,134.72c-.28-.05-.51,1.85-2.3,3s-3.79.7-3.83,1c0,.11.41.42,1.26.55a4.83,4.83,0,0,0,3.19-.71,4.1,4.1,0,0,0,1.8-2.54C352.5,135.22,352.34,134.72,352.21,134.72Z" style="fill:#263238"></path><path d="M355.18,113.34c.11.5,1.89.48,3.92,1s3.62,1.25,3.94.86c.15-.19-.09-.68-.7-1.22a6.67,6.67,0,0,0-2.84-1.38,6.79,6.79,0,0,0-3.15,0C355.55,112.78,355.13,113.11,355.18,113.34Z" style="fill:#263238"></path><path d="M339.24,112.32c.26.44,1.52.17,3,.32s2.65.59,3,.2c.15-.18,0-.61-.49-1a4.33,4.33,0,0,0-4.79-.41C339.35,111.72,339.13,112.11,339.24,112.32Z" style="fill:#263238"></path><path d="M330.13,118.33a8.77,8.77,0,0,1,2.51-5.33,30.08,30.08,0,0,0,2.53-2.11c1.57-1.78,1.56-4.41,2.34-6.65a9.67,9.67,0,0,1,6.44-6c2.45-.68,5.15-.36,7.48-1.39,1.72-.76,3.1-2.19,4.86-2.85,3.44-1.27,7.17.72,10.17,2.82.44,2.54-1.29,4.58-3,6.54a8.91,8.91,0,0,1-6.81,3.09c-2,0-4.29-.64-5.8.67s-1.2,4.06-2.54,5.69c-1.91,2.32-5.77,1.1-8.47,2.42-2.09,1-3.1,3.35-4.26,5.37s-3.06,4-5.36,3.77A25.64,25.64,0,0,1,330.13,118.33Z" style="fill:#263238"></path><path d="M361.16,101A45.16,45.16,0,0,1,378,105.29a8.28,8.28,0,0,1,4,3.21,8.11,8.11,0,0,1,.56,4.48c-.4,4.77-2.76,10.47-4.9,14.75l-6.22,3.13c-4.51-1.42-1.82-9.19-1.31-13.15a9.39,9.39,0,0,1-4.87-8.68A10.43,10.43,0,0,1,361.16,101Z" style="fill:#263238"></path><path d="M371.65,129.15c.38-2.71,3.77-3,6-1.42,1.23.87,2.09,2.47,1.71,5.35-1,7.7-8.53,5.1-8.51,4.88S371.2,132.33,371.65,129.15Z" style="fill:#936760"></path><path d="M373.59,135.35s.12.11.33.24a1.39,1.39,0,0,0,1,.16c.86-.2,1.71-1.4,1.93-2.78a4.59,4.59,0,0,0-.12-2,1.58,1.58,0,0,0-.88-1.16.7.7,0,0,0-.84.26c-.13.21-.1.37-.14.37s-.15-.15-.05-.46a.89.89,0,0,1,.37-.44,1,1,0,0,1,.77-.1,1.9,1.9,0,0,1,1.24,1.38,4.49,4.49,0,0,1,.18,2.21c-.25,1.54-1.23,2.89-2.39,3.06a1.46,1.46,0,0,1-1.2-.36C373.58,135.54,373.56,135.36,373.59,135.35Z" style="fill:#6f4c47"></path><path d="M377.79,137.39a4.07,4.07,0,0,0-1.5-1.18h.12a2,2,0,0,0-.33-.09,1.62,1.62,0,0,0-1.26,0h0a3,3,0,0,0-1.73,1.26,3.49,3.49,0,0,0,.08,3.62,2.67,2.67,0,0,0,5-.47A3.34,3.34,0,0,0,377.79,137.39Z" style="fill:#455a64"></path><path d="M374.21,138.66a.87.87,0,0,0,0,.11,1.74,1.74,0,0,0,.09.3,1.8,1.8,0,0,0,.83.87,4.71,4.71,0,0,0,1.89.53,6.34,6.34,0,0,0,1.24,0,4.85,4.85,0,0,0,1.39-.31l-.09-.06a3.85,3.85,0,0,0,5.94,2.89l-.13,0a1.61,1.61,0,0,0,1,.75,2.16,2.16,0,0,0,1.26,0,2,2,0,0,0,1.07-.74,2.67,2.67,0,0,0,.49-1.25,3.93,3.93,0,0,0-.66-2.64,11.19,11.19,0,0,0-1.89-2.13l0,.18A2.81,2.81,0,0,0,388,135.4a4,4,0,0,0-.06-2.3,6.09,6.09,0,0,0-1.21-2,19.39,19.39,0,0,0-1.71-1.68v.17a2.89,2.89,0,0,0,.92-2.18,4.16,4.16,0,0,0-.7-2.36,10.32,10.32,0,0,0-3.58-2.91l.06.14a5.15,5.15,0,0,0-5.11-6.75l.11.14a4.48,4.48,0,0,0-.77-3.84,4.37,4.37,0,0,0-3.15-1.84l.09.1a4.4,4.4,0,0,0-1.5-3.5,4.32,4.32,0,0,0-3.17-1.13l.08.09a4.2,4.2,0,0,0-.48-2A5.47,5.47,0,0,0,366.7,102a4.46,4.46,0,0,0-2.56-1.33l-.29,0a2.43,2.43,0,0,0-.27,0,3.78,3.78,0,0,0-.49,0,5.1,5.1,0,0,0-.76.15l-.44.15-.15.06s.05,0,.16,0l.44-.13a5.47,5.47,0,0,1,.75-.13,3.92,3.92,0,0,1,.49,0h.27l.28,0a4.38,4.38,0,0,1,2.49,1.34,5.27,5.27,0,0,1,1,1.48,4.09,4.09,0,0,1,.45,2v.09h.08a4.08,4.08,0,0,1,3,1.1,4.22,4.22,0,0,1,1.43,3.36v.09h.1a4.2,4.2,0,0,1,3,1.78,4.25,4.25,0,0,1,.73,3.65l0,.15h.16a4.91,4.91,0,0,1,4.87,6.45l0,.09.09,0a10.13,10.13,0,0,1,3.49,2.84,3.88,3.88,0,0,1,.67,2.22,2.7,2.7,0,0,1-.85,2l-.1.08.1.09a9.18,9.18,0,0,1,2.87,3.61,3.79,3.79,0,0,1,.05,2.16,2.52,2.52,0,0,1-1.24,1.61l-.14.07.11.11a11,11,0,0,1,1.86,2.09,3.71,3.71,0,0,1,.63,2.5,2.07,2.07,0,0,1-1.4,1.83,1.72,1.72,0,0,1-2-.64l-.05-.09-.08.05a3.77,3.77,0,0,1-3.92.09,3.82,3.82,0,0,1-1.8-2.84V140l-.08,0a4.47,4.47,0,0,1-1.35.31,7.14,7.14,0,0,1-1.22,0,4.92,4.92,0,0,1-1.86-.5,1.79,1.79,0,0,1-.84-.83A2.31,2.31,0,0,1,374.21,138.66Z" style="fill:#455a64"></path><path d="M404.26,132.54a2.25,2.25,0,0,0,.33-.44,4.21,4.21,0,0,0,.52-1.5,3.9,3.9,0,0,0-.46-2.48,4.12,4.12,0,0,0-2.67-2l.06.09a5.25,5.25,0,0,0-.42-3.86,5.18,5.18,0,0,0-1.39-1.72,12.32,12.32,0,0,0-2-1.15,4.13,4.13,0,0,1-1-.68,2.5,2.5,0,0,1-.64-1c-.29-.76-.33-1.65-.71-2.48a4.71,4.71,0,0,0-4.54-2.68l.13.14a6.21,6.21,0,0,0-6.35-7.52l.12.14a5.45,5.45,0,0,0-8.08-5.7l.12,0a7.48,7.48,0,0,0-2.58-1.85,11.38,11.38,0,0,0-2.73-.84,12.89,12.89,0,0,0-4.6,0,9.22,9.22,0,0,0-2.81.93,4.69,4.69,0,0,0-.66.41l-.22.15s.31-.2.91-.51a9.77,9.77,0,0,1,2.8-.87,13,13,0,0,1,4.55.07,10.94,10.94,0,0,1,2.68.85,7.15,7.15,0,0,1,2.51,1.81l.05.06.07,0a5.42,5.42,0,0,1,5.38.1,5.36,5.36,0,0,1,2.38,5.39l0,.14h.14a6,6,0,0,1,6.11,7.24l0,.16.15,0a4.5,4.5,0,0,1,4.32,2.54c.36.78.41,1.66.71,2.47a2.82,2.82,0,0,0,.69,1.07,4.35,4.35,0,0,0,1,.71,13.39,13.39,0,0,1,2,1.12,5.06,5.06,0,0,1,1.35,1.65,5.13,5.13,0,0,1,.43,3.74l0,.08.08,0a4,4,0,0,1,2.6,1.89,3.88,3.88,0,0,1,.48,2.4,4.17,4.17,0,0,1-.48,1.49C404.37,132.39,404.25,132.53,404.26,132.54Z" style="fill:#455a64"></path><path d="M330.18,129.25a.74.74,0,0,0,.08-.63,1.67,1.67,0,0,0-.41-.68,2.65,2.65,0,0,0-.92-.55,4.29,4.29,0,0,1-1.17-.59,2.38,2.38,0,0,1-.78-1.3,4.63,4.63,0,0,1-.06-1.79c.07-.63.22-1.3.27-2a21,21,0,0,0-.65-4.65,6.41,6.41,0,0,1,.08-2.54,3.14,3.14,0,0,1,1.56-2.08,11.92,11.92,0,0,1,2.78-.72,4.53,4.53,0,0,0,1.43-.54,3.11,3.11,0,0,0,1.07-1.15,14.88,14.88,0,0,0,1-3,5.23,5.23,0,0,1,.65-1.42,2.36,2.36,0,0,1,1.21-.92,8.55,8.55,0,0,1,2.16-.13,3.45,3.45,0,0,0,1.1-.2,2,2,0,0,0,.91-.66,7.57,7.57,0,0,0,1-1.91,4.76,4.76,0,0,1,1.1-1.68,4.67,4.67,0,0,1,3.48-1.36,4.78,4.78,0,0,1,3.2,1.43l.09.1.07-.12a7.36,7.36,0,0,1,4.88-3.63,6.72,6.72,0,0,1,2.6,0,6.24,6.24,0,0,1,2.08.75,5.46,5.46,0,0,1,2.11,2.24,7,7,0,0,1,.33.75l.07.2s0,.07,0,.07l0-.07-.06-.21a4.87,4.87,0,0,0-.31-.77,5.38,5.38,0,0,0-2.1-2.31,6.2,6.2,0,0,0-2.12-.79,7,7,0,0,0-2.65,0,7.55,7.55,0,0,0-5,3.7l.16,0a5,5,0,0,0-3.33-1.51,5,5,0,0,0-4.8,3.17,7.8,7.8,0,0,1-.92,1.85,2.26,2.26,0,0,1-1.84.77,8.86,8.86,0,0,0-2.22.15,2.64,2.64,0,0,0-1.34,1,5.38,5.38,0,0,0-.67,1.49,14.75,14.75,0,0,1-1,2.94,2.94,2.94,0,0,1-1,1.08,4.65,4.65,0,0,1-1.36.51,11.94,11.94,0,0,0-2.83.75,3,3,0,0,0-1.08.94,3.94,3.94,0,0,0-.58,1.27,6.69,6.69,0,0,0-.07,2.63,21.2,21.2,0,0,1,.67,4.6c0,.71-.18,1.38-.25,2a4.83,4.83,0,0,0,.08,1.83,2.54,2.54,0,0,0,.84,1.36,4.63,4.63,0,0,0,1.21.59,2.56,2.56,0,0,1,.9.51,1.5,1.5,0,0,1,.41.64A1,1,0,0,1,330.18,129.25Z" style="fill:#455a64"></path><path d="M316.05,116.18l.09-.14.24-.41.92-1.62c.4-.7.86-1.58,1.5-2.53a6.84,6.84,0,0,1,2.79-2.59c.65-.29,1.39-.46,2.14-.73a5.6,5.6,0,0,0,1.1-.54,2.75,2.75,0,0,0,.86-1c.42-.77.5-1.68.85-2.49a2.13,2.13,0,0,1,.83-1,4.09,4.09,0,0,1,1.28-.48,8.32,8.32,0,0,0,1.4-.43,2.45,2.45,0,0,0,1.14-1,11.16,11.16,0,0,0,.88-2.95,3.67,3.67,0,0,1,.62-1.38A1.92,1.92,0,0,1,334,96.2c1-.14,2.1.29,3.25.2a2.81,2.81,0,0,0,1.54-.68,7.38,7.38,0,0,0,1.06-1.26,12.35,12.35,0,0,1,.95-1.27,3,3,0,0,1,1.2-.89,4.52,4.52,0,0,1,2.92.23,6.7,6.7,0,0,0,2.92.47,8,8,0,0,0,2.64-1,13.15,13.15,0,0,1,2.36-1.1,7.92,7.92,0,0,1,4.6.19,8.48,8.48,0,0,1,3.27,2,9.83,9.83,0,0,1,1.72,2.36,11.58,11.58,0,0,1,.68,1.72c.06.19.11.35.14.46l.06.16s0-.06,0-.16-.07-.28-.13-.47a9.81,9.81,0,0,0-.64-1.75,9.59,9.59,0,0,0-1.7-2.41A8.75,8.75,0,0,0,357.47,91a8.19,8.19,0,0,0-4.71-.22,13.69,13.69,0,0,0-2.41,1.1,7.65,7.65,0,0,1-2.57,1,6.7,6.7,0,0,1-2.82-.47,9,9,0,0,0-1.49-.37,3.16,3.16,0,0,0-1.58.13,3.32,3.32,0,0,0-1.3,1c-.36.41-.65.86-1,1.29a7.1,7.1,0,0,1-1,1.22,2.51,2.51,0,0,1-1.42.62c-1.06.1-2.13-.34-3.25-.2a2.15,2.15,0,0,0-1.43.81,3.82,3.82,0,0,0-.66,1.47,11.72,11.72,0,0,1-.85,2.89,2.29,2.29,0,0,1-1,.93,7.11,7.11,0,0,1-1.36.41,4.35,4.35,0,0,0-1.35.52,2.46,2.46,0,0,0-.9,1.1c-.36.85-.43,1.75-.83,2.48a3.18,3.18,0,0,1-1.86,1.42c-.73.26-1.47.44-2.14.75a6.91,6.91,0,0,0-2.83,2.66c-.63,1-1.08,1.86-1.47,2.56s-.67,1.26-.88,1.64c-.09.18-.17.32-.22.43S316,116.18,316.05,116.18Z" style="fill:#455a64"></path><path d="M324.87,108.69l-.14,0a.76.76,0,0,0-.42.06,1.66,1.66,0,0,0-.87,1.31,4,4,0,0,0,.08,1.17,4.58,4.58,0,0,1,.1,1.35,3,3,0,0,1-.65,1.39c-.33.45-.75.87-1.1,1.41a2.24,2.24,0,0,0-.33,1.93c.2.68.64,1.26.82,2a2.91,2.91,0,0,1-.36,2.11c-.36.68-.84,1.34-1.19,2.1a3.46,3.46,0,0,0-.34,1.24,3.22,3.22,0,0,0,.2,1.3,15.07,15.07,0,0,0,1.31,2.31,3.59,3.59,0,0,1,.64,2.51,12.29,12.29,0,0,1-1.13,2.54,4,4,0,0,0-.39,1.4,3.19,3.19,0,0,0,.26,1.41,12,12,0,0,0,1.51,2.31,6.36,6.36,0,0,1,1.19,2.29,18.47,18.47,0,0,0,.63,2.46,2.76,2.76,0,0,0,.71,1,3.6,3.6,0,0,0,1.05.61,9.22,9.22,0,0,1,1.05.46,3.7,3.7,0,0,1,.85.67,8.08,8.08,0,0,1,1.14,1.75c.32.6.6,1.19.94,1.72a5.26,5.26,0,0,0,2.55,2.18,5.75,5.75,0,0,0,2.5.43,5.15,5.15,0,0,0,1.58-.34,3.7,3.7,0,0,0,.5-.24,5.92,5.92,0,0,1-2.08.49,5.72,5.72,0,0,1-2.45-.46,5.15,5.15,0,0,1-2.46-2.14c-.32-.53-.6-1.12-.91-1.73a8.21,8.21,0,0,0-1.17-1.79,3.9,3.9,0,0,0-.89-.72,10.27,10.27,0,0,0-1.07-.48,3.27,3.27,0,0,1-1-.57,2.48,2.48,0,0,1-.65-1,18.51,18.51,0,0,1-.61-2.44,6.56,6.56,0,0,0-1.23-2.37,11.24,11.24,0,0,1-1.47-2.26,2.81,2.81,0,0,1-.24-1.31,3.44,3.44,0,0,1,.37-1.31,11.86,11.86,0,0,0,1.14-2.6,3,3,0,0,0-.09-1.42,5.94,5.94,0,0,0-.58-1.25,14.51,14.51,0,0,1-1.3-2.27,3,3,0,0,1-.19-1.21,3.4,3.4,0,0,1,.32-1.16c.33-.74.81-1.39,1.17-2.1a3,3,0,0,0,.37-2.25c-.21-.74-.65-1.32-.84-2a2,2,0,0,1,.31-1.79c.33-.52.74-1,1.07-1.41a3,3,0,0,0,.66-1.46,4.74,4.74,0,0,0-.12-1.39,4.23,4.23,0,0,1-.1-1.14,1.62,1.62,0,0,1,.8-1.28A1.17,1.17,0,0,1,324.87,108.69Z" style="fill:#455a64"></path><path d="M404.09,132.27a2.82,2.82,0,0,0,.61,0,4.23,4.23,0,0,0,1.68-.58,4.1,4.1,0,0,0,1.8-2.16,4.34,4.34,0,0,0-.36-3.69,10.3,10.3,0,0,0-1.43-1.71,5.13,5.13,0,0,1-1.31-1.94,3.43,3.43,0,0,1,.31-2.45c.35-.81.87-1.58,1.22-2.48a7.6,7.6,0,0,0-5-10.07l.06.18a3.93,3.93,0,0,0,.8-1.64,5,5,0,0,0,0-1.84,5.49,5.49,0,0,0-.65-1.76,6.77,6.77,0,0,0-1.21-1.46,12,12,0,0,0-4.94-2.43,17.85,17.85,0,0,0-5.18-.61l.12.12a5.51,5.51,0,0,0-2.75-5A5.61,5.61,0,0,0,385.2,92a9.08,9.08,0,0,0-2.59.48,5.06,5.06,0,0,1-1.21.18,3,3,0,0,1-1.15-.21,9.3,9.3,0,0,1-2-1.14,8,8,0,0,0-1.89-1,6.87,6.87,0,0,0-1.94-.41,6.45,6.45,0,0,0-3.27.64,6.63,6.63,0,0,0-2,1.49,6.25,6.25,0,0,0-.91,1.27,3.36,3.36,0,0,0-.23.49s.08-.17.26-.47a7.13,7.13,0,0,1,.93-1.24,6.66,6.66,0,0,1,2-1.44,6.49,6.49,0,0,1,5.1-.18,7.92,7.92,0,0,1,1.85,1,9.58,9.58,0,0,0,2,1.18,3.34,3.34,0,0,0,1.22.22,5.32,5.32,0,0,0,1.26-.18,8.71,8.71,0,0,1,2.54-.47,5.43,5.43,0,0,1,2.57.71,5.28,5.28,0,0,1,2.63,4.79v.12h.12a18.08,18.08,0,0,1,5.11.61,11.77,11.77,0,0,1,4.84,2.39,6.27,6.27,0,0,1,1.17,1.4,5.09,5.09,0,0,1,.62,1.68,4.68,4.68,0,0,1,0,1.75,3.58,3.58,0,0,1-.75,1.54l-.11.14.17.05a7.39,7.39,0,0,1,4.87,9.78c-.34.87-.85,1.65-1.21,2.47a3.6,3.6,0,0,0-.3,2.58,5.42,5.42,0,0,0,1.36,2,10.77,10.77,0,0,1,1.42,1.67,4.21,4.21,0,0,1,.38,3.57,4.08,4.08,0,0,1-1.73,2.13,4.24,4.24,0,0,1-1.64.61C404.3,132.27,404.09,132.26,404.09,132.27Z" style="fill:#263238"></path><path d="M322.53,103.18s0-.05,0-.15l.07-.43c.07-.39.16-.95.28-1.66s.3-1.59.57-2.59a14.76,14.76,0,0,1,1.26-3.26,9.9,9.9,0,0,1,2.72-3.2,7.41,7.41,0,0,1,2.07-1.08,21.76,21.76,0,0,1,2.46-.52,7,7,0,0,0,2.51-.9,10.7,10.7,0,0,0,2.12-1.81c.65-.68,1.28-1.4,2-2A7.55,7.55,0,0,1,341.07,84a13.92,13.92,0,0,1,5.68-.78,36.11,36.11,0,0,1,5.36.62,27.48,27.48,0,0,1,8.55,3.08,19.32,19.32,0,0,1,4.79,3.84c.24.27.46.51.64.73l.43.56.27.35.09.11s0,0-.07-.12l-.25-.36-.41-.59-.63-.74a18.77,18.77,0,0,0-4.77-3.92,27.69,27.69,0,0,0-8.6-3.16,36.48,36.48,0,0,0-5.4-.63,14.11,14.11,0,0,0-5.77.79,8,8,0,0,0-2.51,1.58c-.73.66-1.36,1.38-2,2.06a10.74,10.74,0,0,1-2.06,1.78,6.69,6.69,0,0,1-2.45.88,21.62,21.62,0,0,0-2.47.53,7.33,7.33,0,0,0-2.13,1.12A10.07,10.07,0,0,0,324.61,95a14.71,14.71,0,0,0-1.25,3.31,25.73,25.73,0,0,0-.53,2.61c-.12.72-.19,1.28-.24,1.66,0,.18,0,.33,0,.44S322.53,103.18,322.53,103.18Z" style="fill:#263238"></path></g></svg>