<?xml version="1.0" standalone="no"?>
<svg xmlns:xlink="http://www.w3.org/1999/xlink" id="wave" style="transform:rotate(0deg); transition: 0.3s" viewBox="0 0 1440 490" version="1.1" xmlns="http://www.w3.org/2000/svg"><defs><linearGradient id="sw-gradient-0" x1="0" x2="0" y1="1" y2="0"><stop stop-color="rgba(15.941, 26.322, 216.152, 1)" offset="0%"/><stop stop-color="rgba(2.915, 237.734, 250.304, 1)" offset="100%"/></linearGradient></defs><path style="transform:translate(0, 0px); opacity:1" fill="url(#sw-gradient-0)" d="M0,294L48,318.5C96,343,192,392,288,351.2C384,310,480,180,576,155.2C672,131,768,212,864,204.2C960,196,1056,98,1152,65.3C1248,33,1344,65,1440,106.2C1536,147,1632,196,1728,204.2C1824,212,1920,180,2016,163.3C2112,147,2208,147,2304,122.5C2400,98,2496,49,2592,65.3C2688,82,2784,163,2880,163.3C2976,163,3072,82,3168,65.3C3264,49,3360,98,3456,147C3552,196,3648,245,3744,228.7C3840,212,3936,131,4032,138.8C4128,147,4224,245,4320,245C4416,245,4512,147,4608,163.3C4704,180,4800,310,4896,334.8C4992,359,5088,278,5184,236.8C5280,196,5376,196,5472,204.2C5568,212,5664,229,5760,196C5856,163,5952,82,6048,40.8C6144,0,6240,0,6336,24.5C6432,49,6528,98,6624,171.5C6720,245,6816,343,6864,392L6912,441L6912,490L6864,490C6816,490,6720,490,6624,490C6528,490,6432,490,6336,490C6240,490,6144,490,6048,490C5952,490,5856,490,5760,490C5664,490,5568,490,5472,490C5376,490,5280,490,5184,490C5088,490,4992,490,4896,490C4800,490,4704,490,4608,490C4512,490,4416,490,4320,490C4224,490,4128,490,4032,490C3936,490,3840,490,3744,490C3648,490,3552,490,3456,490C3360,490,3264,490,3168,490C3072,490,2976,490,2880,490C2784,490,2688,490,2592,490C2496,490,2400,490,2304,490C2208,490,2112,490,2016,490C1920,490,1824,490,1728,490C1632,490,1536,490,1440,490C1344,490,1248,490,1152,490C1056,490,960,490,864,490C768,490,672,490,576,490C480,490,384,490,288,490C192,490,96,490,48,490L0,490Z"/></svg>